<svg xmlns="http://www.w3.org/2000/svg" viewBox="0 0 24 24" width="48" height="48" fill="white">
  <path d="M12 0C5.372 0 0 5.372 0 12c0 5.303 3.438 9.8 8.207 11.385.6.11.793-.261.793-.58 0-.287-.01-1.045-.015-2.05-3.348.727-4.042-1.611-4.042-1.611-.546-1.385-1.333-1.753-1.333-1.753-1.088-.743.083-.727.083-.727 1.204.085 1.833 1.236 1.833 1.236 1.07 1.834 2.807 1.305 3.487.997.108-.777.417-1.305.76-1.605-2.665-.3-5.466-1.332-5.466-5.93 0-1.31.465-2.38 1.235-3.221-.124-.302-.536-1.523.117-3.17 0 0 1.005-.322 3.3 1.23.958-.266 1.982-.399 3-.405 1.018.006 2.042.139 3 .405 2.292-1.552 3.297-1.23 3.297-1.23.654 1.647.242 2.868.117 3.17.77.841 1.232 1.911 1.232 3.221 0 4.608-2.805 5.626-5.475 5.922.43.369.816 1.095.816 2.204 0 1.592-.015 2.874-.015 3.269 0 .32.193.696.801.578C20.566 21.797 24 17.302 24 12c0-6.628-5.372-12-12-12"/>
</svg>
